<mxfile host="app.diagrams.net" modified="2023-09-08T14:01:26.866Z" agent="Mozilla/5.0 (Macintosh; Intel Mac OS X 10_15_7) AppleWebKit/537.36 (KHTML, like Gecko) Chrome/116.0.0.0 Safari/537.36" etag="GAuOiYSxB7iRw18U45kW" version="21.7.2" type="device">
  <diagram id="C5RBs43oDa-KdzZeNtuy" name="Page-1">
    <mxGraphModel dx="2750" dy="1228" grid="1" gridSize="10" guides="1" tooltips="1" connect="1" arrows="1" fold="1" page="1" pageScale="1" pageWidth="827" pageHeight="1169" math="0" shadow="0">
      <root>
        <mxCell id="WIyWlLk6GJQsqaUBKTNV-0" />
        <mxCell id="WIyWlLk6GJQsqaUBKTNV-1" parent="WIyWlLk6GJQsqaUBKTNV-0" />
        <mxCell id="iOhFzhvNQvbZCGVVYY14-1" value="" style="edgeStyle=orthogonalEdgeStyle;rounded=0;orthogonalLoop=1;jettySize=auto;html=1;" edge="1" parent="WIyWlLk6GJQsqaUBKTNV-1" source="WIyWlLk6GJQsqaUBKTNV-3" target="iOhFzhvNQvbZCGVVYY14-0">
          <mxGeometry relative="1" as="geometry" />
        </mxCell>
        <mxCell id="WIyWlLk6GJQsqaUBKTNV-3" value="Game Start" style="rounded=1;whiteSpace=wrap;html=1;fontSize=12;glass=0;strokeWidth=1;shadow=0;" parent="WIyWlLk6GJQsqaUBKTNV-1" vertex="1">
          <mxGeometry x="160" y="80" width="120" height="40" as="geometry" />
        </mxCell>
        <mxCell id="iOhFzhvNQvbZCGVVYY14-24" value="" style="edgeStyle=orthogonalEdgeStyle;rounded=0;orthogonalLoop=1;jettySize=auto;html=1;" edge="1" parent="WIyWlLk6GJQsqaUBKTNV-1" source="iOhFzhvNQvbZCGVVYY14-0" target="iOhFzhvNQvbZCGVVYY14-23">
          <mxGeometry relative="1" as="geometry" />
        </mxCell>
        <mxCell id="iOhFzhvNQvbZCGVVYY14-0" value="Read in words from file" style="whiteSpace=wrap;html=1;rounded=1;glass=0;strokeWidth=1;shadow=0;" vertex="1" parent="WIyWlLk6GJQsqaUBKTNV-1">
          <mxGeometry x="160" y="190" width="120" height="60" as="geometry" />
        </mxCell>
        <mxCell id="iOhFzhvNQvbZCGVVYY14-7" value="" style="edgeStyle=orthogonalEdgeStyle;rounded=0;orthogonalLoop=1;jettySize=auto;html=1;" edge="1" parent="WIyWlLk6GJQsqaUBKTNV-1" source="iOhFzhvNQvbZCGVVYY14-4" target="iOhFzhvNQvbZCGVVYY14-6">
          <mxGeometry relative="1" as="geometry" />
        </mxCell>
        <mxCell id="iOhFzhvNQvbZCGVVYY14-21" value="No" style="edgeLabel;html=1;align=center;verticalAlign=middle;resizable=0;points=[];" vertex="1" connectable="0" parent="iOhFzhvNQvbZCGVVYY14-7">
          <mxGeometry x="-0.0133" y="-1" relative="1" as="geometry">
            <mxPoint as="offset" />
          </mxGeometry>
        </mxCell>
        <mxCell id="iOhFzhvNQvbZCGVVYY14-16" value="" style="edgeStyle=orthogonalEdgeStyle;rounded=0;orthogonalLoop=1;jettySize=auto;html=1;" edge="1" parent="WIyWlLk6GJQsqaUBKTNV-1" source="iOhFzhvNQvbZCGVVYY14-4" target="iOhFzhvNQvbZCGVVYY14-15">
          <mxGeometry relative="1" as="geometry" />
        </mxCell>
        <mxCell id="iOhFzhvNQvbZCGVVYY14-22" value="Yes" style="edgeLabel;html=1;align=center;verticalAlign=middle;resizable=0;points=[];" vertex="1" connectable="0" parent="iOhFzhvNQvbZCGVVYY14-16">
          <mxGeometry x="-0.1" y="1" relative="1" as="geometry">
            <mxPoint as="offset" />
          </mxGeometry>
        </mxCell>
        <mxCell id="iOhFzhvNQvbZCGVVYY14-4" value="Is guess count &lt;br&gt;greater than 0?" style="rhombus;whiteSpace=wrap;html=1;rounded=1;glass=0;strokeWidth=1;shadow=0;arcSize=0;" vertex="1" parent="WIyWlLk6GJQsqaUBKTNV-1">
          <mxGeometry x="135" y="450" width="170" height="100" as="geometry" />
        </mxCell>
        <mxCell id="iOhFzhvNQvbZCGVVYY14-13" value="" style="edgeStyle=orthogonalEdgeStyle;rounded=0;orthogonalLoop=1;jettySize=auto;html=1;" edge="1" parent="WIyWlLk6GJQsqaUBKTNV-1" source="iOhFzhvNQvbZCGVVYY14-6" target="iOhFzhvNQvbZCGVVYY14-12">
          <mxGeometry relative="1" as="geometry">
            <Array as="points">
              <mxPoint x="-130" y="500" />
            </Array>
          </mxGeometry>
        </mxCell>
        <mxCell id="iOhFzhvNQvbZCGVVYY14-6" value="End Game" style="whiteSpace=wrap;html=1;rounded=1;glass=0;strokeWidth=1;shadow=0;arcSize=0;" vertex="1" parent="WIyWlLk6GJQsqaUBKTNV-1">
          <mxGeometry x="-50" y="470" width="120" height="60" as="geometry" />
        </mxCell>
        <mxCell id="iOhFzhvNQvbZCGVVYY14-64" style="edgeStyle=orthogonalEdgeStyle;rounded=0;orthogonalLoop=1;jettySize=auto;html=1;entryX=0;entryY=0.5;entryDx=0;entryDy=0;" edge="1" parent="WIyWlLk6GJQsqaUBKTNV-1" source="iOhFzhvNQvbZCGVVYY14-8" target="iOhFzhvNQvbZCGVVYY14-23">
          <mxGeometry relative="1" as="geometry">
            <Array as="points">
              <mxPoint y="290" />
              <mxPoint y="360" />
            </Array>
          </mxGeometry>
        </mxCell>
        <mxCell id="iOhFzhvNQvbZCGVVYY14-8" value="Reset guess count to 5" style="whiteSpace=wrap;html=1;rounded=1;glass=0;strokeWidth=1;shadow=0;arcSize=0;" vertex="1" parent="WIyWlLk6GJQsqaUBKTNV-1">
          <mxGeometry x="-190" y="260" width="120" height="60" as="geometry" />
        </mxCell>
        <mxCell id="iOhFzhvNQvbZCGVVYY14-14" value="" style="edgeStyle=orthogonalEdgeStyle;rounded=0;orthogonalLoop=1;jettySize=auto;html=1;" edge="1" parent="WIyWlLk6GJQsqaUBKTNV-1" source="iOhFzhvNQvbZCGVVYY14-12" target="iOhFzhvNQvbZCGVVYY14-8">
          <mxGeometry relative="1" as="geometry" />
        </mxCell>
        <mxCell id="iOhFzhvNQvbZCGVVYY14-12" value="Display results" style="whiteSpace=wrap;html=1;rounded=1;glass=0;strokeWidth=1;shadow=0;arcSize=0;" vertex="1" parent="WIyWlLk6GJQsqaUBKTNV-1">
          <mxGeometry x="-190" y="390" width="120" height="60" as="geometry" />
        </mxCell>
        <mxCell id="iOhFzhvNQvbZCGVVYY14-20" value="" style="edgeStyle=orthogonalEdgeStyle;rounded=0;orthogonalLoop=1;jettySize=auto;html=1;" edge="1" parent="WIyWlLk6GJQsqaUBKTNV-1" source="iOhFzhvNQvbZCGVVYY14-15" target="iOhFzhvNQvbZCGVVYY14-19">
          <mxGeometry relative="1" as="geometry" />
        </mxCell>
        <mxCell id="iOhFzhvNQvbZCGVVYY14-15" value="Wait for user input" style="whiteSpace=wrap;html=1;rounded=1;glass=0;strokeWidth=1;shadow=0;arcSize=0;" vertex="1" parent="WIyWlLk6GJQsqaUBKTNV-1">
          <mxGeometry x="160" y="650" width="120" height="60" as="geometry" />
        </mxCell>
        <mxCell id="iOhFzhvNQvbZCGVVYY14-27" value="" style="edgeStyle=orthogonalEdgeStyle;rounded=0;orthogonalLoop=1;jettySize=auto;html=1;entryX=1;entryY=0.75;entryDx=0;entryDy=0;" edge="1" parent="WIyWlLk6GJQsqaUBKTNV-1" source="iOhFzhvNQvbZCGVVYY14-19" target="iOhFzhvNQvbZCGVVYY14-15">
          <mxGeometry relative="1" as="geometry">
            <mxPoint x="410" y="830" as="targetPoint" />
            <Array as="points">
              <mxPoint x="450" y="830" />
              <mxPoint x="450" y="695" />
            </Array>
          </mxGeometry>
        </mxCell>
        <mxCell id="iOhFzhvNQvbZCGVVYY14-28" value="No" style="edgeLabel;html=1;align=center;verticalAlign=middle;resizable=0;points=[];" vertex="1" connectable="0" parent="iOhFzhvNQvbZCGVVYY14-27">
          <mxGeometry x="-0.3143" y="2" relative="1" as="geometry">
            <mxPoint x="2" y="-40" as="offset" />
          </mxGeometry>
        </mxCell>
        <mxCell id="iOhFzhvNQvbZCGVVYY14-32" value="" style="edgeStyle=orthogonalEdgeStyle;rounded=0;orthogonalLoop=1;jettySize=auto;html=1;entryX=0.5;entryY=0;entryDx=0;entryDy=0;" edge="1" parent="WIyWlLk6GJQsqaUBKTNV-1" source="iOhFzhvNQvbZCGVVYY14-19" target="iOhFzhvNQvbZCGVVYY14-34">
          <mxGeometry relative="1" as="geometry">
            <mxPoint x="220" y="980" as="targetPoint" />
          </mxGeometry>
        </mxCell>
        <mxCell id="iOhFzhvNQvbZCGVVYY14-33" value="Yes" style="edgeLabel;html=1;align=center;verticalAlign=middle;resizable=0;points=[];" vertex="1" connectable="0" parent="iOhFzhvNQvbZCGVVYY14-32">
          <mxGeometry x="-0.04" y="-3" relative="1" as="geometry">
            <mxPoint as="offset" />
          </mxGeometry>
        </mxCell>
        <mxCell id="iOhFzhvNQvbZCGVVYY14-19" value="Is the user input &lt;br&gt;5 characters &lt;br&gt;long?" style="rhombus;whiteSpace=wrap;html=1;rounded=1;glass=0;strokeWidth=1;shadow=0;arcSize=0;" vertex="1" parent="WIyWlLk6GJQsqaUBKTNV-1">
          <mxGeometry x="135" y="780" width="170" height="100" as="geometry" />
        </mxCell>
        <mxCell id="iOhFzhvNQvbZCGVVYY14-25" value="" style="edgeStyle=orthogonalEdgeStyle;rounded=0;orthogonalLoop=1;jettySize=auto;html=1;" edge="1" parent="WIyWlLk6GJQsqaUBKTNV-1" source="iOhFzhvNQvbZCGVVYY14-23" target="iOhFzhvNQvbZCGVVYY14-4">
          <mxGeometry relative="1" as="geometry" />
        </mxCell>
        <mxCell id="iOhFzhvNQvbZCGVVYY14-23" value="Start Game&amp;nbsp;" style="whiteSpace=wrap;html=1;rounded=1;glass=0;strokeWidth=1;shadow=0;" vertex="1" parent="WIyWlLk6GJQsqaUBKTNV-1">
          <mxGeometry x="160" y="330" width="120" height="60" as="geometry" />
        </mxCell>
        <mxCell id="iOhFzhvNQvbZCGVVYY14-37" value="" style="edgeStyle=orthogonalEdgeStyle;rounded=0;orthogonalLoop=1;jettySize=auto;html=1;" edge="1" parent="WIyWlLk6GJQsqaUBKTNV-1" source="iOhFzhvNQvbZCGVVYY14-34" target="iOhFzhvNQvbZCGVVYY14-36">
          <mxGeometry relative="1" as="geometry" />
        </mxCell>
        <mxCell id="iOhFzhvNQvbZCGVVYY14-38" value="No" style="edgeLabel;html=1;align=center;verticalAlign=middle;resizable=0;points=[];" vertex="1" connectable="0" parent="iOhFzhvNQvbZCGVVYY14-37">
          <mxGeometry x="0.1455" y="4" relative="1" as="geometry">
            <mxPoint x="-13" y="4" as="offset" />
          </mxGeometry>
        </mxCell>
        <mxCell id="iOhFzhvNQvbZCGVVYY14-42" value="" style="edgeStyle=orthogonalEdgeStyle;rounded=0;orthogonalLoop=1;jettySize=auto;html=1;" edge="1" parent="WIyWlLk6GJQsqaUBKTNV-1" source="iOhFzhvNQvbZCGVVYY14-34" target="iOhFzhvNQvbZCGVVYY14-41">
          <mxGeometry relative="1" as="geometry" />
        </mxCell>
        <mxCell id="iOhFzhvNQvbZCGVVYY14-47" value="Yes" style="edgeLabel;html=1;align=center;verticalAlign=middle;resizable=0;points=[];" vertex="1" connectable="0" parent="iOhFzhvNQvbZCGVVYY14-42">
          <mxGeometry x="-0.1162" relative="1" as="geometry">
            <mxPoint as="offset" />
          </mxGeometry>
        </mxCell>
        <mxCell id="iOhFzhvNQvbZCGVVYY14-34" value="Does the string match&lt;br&gt;the target word?" style="rhombus;whiteSpace=wrap;html=1;rounded=1;glass=0;strokeWidth=1;shadow=0;arcSize=0;" vertex="1" parent="WIyWlLk6GJQsqaUBKTNV-1">
          <mxGeometry x="130" y="980" width="180" height="100" as="geometry" />
        </mxCell>
        <mxCell id="iOhFzhvNQvbZCGVVYY14-44" value="" style="edgeStyle=orthogonalEdgeStyle;rounded=0;orthogonalLoop=1;jettySize=auto;html=1;" edge="1" parent="WIyWlLk6GJQsqaUBKTNV-1" source="iOhFzhvNQvbZCGVVYY14-36" target="iOhFzhvNQvbZCGVVYY14-43">
          <mxGeometry relative="1" as="geometry" />
        </mxCell>
        <mxCell id="iOhFzhvNQvbZCGVVYY14-36" value="Increment guess count" style="whiteSpace=wrap;html=1;rounded=1;glass=0;strokeWidth=1;shadow=0;arcSize=0;" vertex="1" parent="WIyWlLk6GJQsqaUBKTNV-1">
          <mxGeometry x="420" y="1000" width="120" height="60" as="geometry" />
        </mxCell>
        <mxCell id="iOhFzhvNQvbZCGVVYY14-57" value="" style="edgeStyle=orthogonalEdgeStyle;rounded=0;orthogonalLoop=1;jettySize=auto;html=1;" edge="1" parent="WIyWlLk6GJQsqaUBKTNV-1" source="iOhFzhvNQvbZCGVVYY14-41" target="iOhFzhvNQvbZCGVVYY14-56">
          <mxGeometry relative="1" as="geometry" />
        </mxCell>
        <mxCell id="iOhFzhvNQvbZCGVVYY14-41" value="Display success message" style="whiteSpace=wrap;html=1;rounded=1;glass=0;strokeWidth=1;shadow=0;arcSize=0;" vertex="1" parent="WIyWlLk6GJQsqaUBKTNV-1">
          <mxGeometry x="160" y="1180" width="120" height="60" as="geometry" />
        </mxCell>
        <mxCell id="iOhFzhvNQvbZCGVVYY14-45" style="edgeStyle=orthogonalEdgeStyle;rounded=0;orthogonalLoop=1;jettySize=auto;html=1;entryX=1;entryY=0.25;entryDx=0;entryDy=0;" edge="1" parent="WIyWlLk6GJQsqaUBKTNV-1" source="iOhFzhvNQvbZCGVVYY14-43" target="iOhFzhvNQvbZCGVVYY14-15">
          <mxGeometry relative="1" as="geometry">
            <Array as="points">
              <mxPoint x="780" y="1030" />
              <mxPoint x="780" y="665" />
            </Array>
          </mxGeometry>
        </mxCell>
        <mxCell id="iOhFzhvNQvbZCGVVYY14-43" value="Display character diffs/matches to user." style="whiteSpace=wrap;html=1;rounded=1;glass=0;strokeWidth=1;shadow=0;arcSize=0;" vertex="1" parent="WIyWlLk6GJQsqaUBKTNV-1">
          <mxGeometry x="620" y="1000" width="120" height="60" as="geometry" />
        </mxCell>
        <mxCell id="iOhFzhvNQvbZCGVVYY14-59" value="" style="edgeStyle=orthogonalEdgeStyle;rounded=0;orthogonalLoop=1;jettySize=auto;html=1;" edge="1" parent="WIyWlLk6GJQsqaUBKTNV-1" source="iOhFzhvNQvbZCGVVYY14-56" target="iOhFzhvNQvbZCGVVYY14-58">
          <mxGeometry relative="1" as="geometry" />
        </mxCell>
        <mxCell id="iOhFzhvNQvbZCGVVYY14-63" value="Yes" style="edgeLabel;html=1;align=center;verticalAlign=middle;resizable=0;points=[];" vertex="1" connectable="0" parent="iOhFzhvNQvbZCGVVYY14-59">
          <mxGeometry x="-0.3397" y="4" relative="1" as="geometry">
            <mxPoint x="4" y="-13" as="offset" />
          </mxGeometry>
        </mxCell>
        <mxCell id="iOhFzhvNQvbZCGVVYY14-70" style="edgeStyle=orthogonalEdgeStyle;rounded=0;orthogonalLoop=1;jettySize=auto;html=1;entryX=0.5;entryY=1;entryDx=0;entryDy=0;" edge="1" parent="WIyWlLk6GJQsqaUBKTNV-1" source="iOhFzhvNQvbZCGVVYY14-56" target="iOhFzhvNQvbZCGVVYY14-6">
          <mxGeometry relative="1" as="geometry" />
        </mxCell>
        <mxCell id="iOhFzhvNQvbZCGVVYY14-71" value="No" style="edgeLabel;html=1;align=center;verticalAlign=middle;resizable=0;points=[];" vertex="1" connectable="0" parent="iOhFzhvNQvbZCGVVYY14-70">
          <mxGeometry x="0.0658" y="-3" relative="1" as="geometry">
            <mxPoint x="-3" y="6" as="offset" />
          </mxGeometry>
        </mxCell>
        <mxCell id="iOhFzhvNQvbZCGVVYY14-56" value="Are there new words&lt;br&gt;available?" style="rhombus;whiteSpace=wrap;html=1;rounded=1;glass=0;strokeWidth=1;shadow=0;arcSize=0;" vertex="1" parent="WIyWlLk6GJQsqaUBKTNV-1">
          <mxGeometry x="-360" y="785" width="180" height="90" as="geometry" />
        </mxCell>
        <mxCell id="iOhFzhvNQvbZCGVVYY14-69" style="edgeStyle=orthogonalEdgeStyle;rounded=0;orthogonalLoop=1;jettySize=auto;html=1;exitX=0.5;exitY=0;exitDx=0;exitDy=0;entryX=0;entryY=0.5;entryDx=0;entryDy=0;" edge="1" parent="WIyWlLk6GJQsqaUBKTNV-1" source="iOhFzhvNQvbZCGVVYY14-58" target="iOhFzhvNQvbZCGVVYY14-8">
          <mxGeometry relative="1" as="geometry" />
        </mxCell>
        <mxCell id="iOhFzhvNQvbZCGVVYY14-58" value="Select new word" style="whiteSpace=wrap;html=1;rounded=1;glass=0;strokeWidth=1;shadow=0;arcSize=0;" vertex="1" parent="WIyWlLk6GJQsqaUBKTNV-1">
          <mxGeometry x="-330" y="580" width="120" height="60" as="geometry" />
        </mxCell>
      </root>
    </mxGraphModel>
  </diagram>
</mxfile>
